# Blender v2.78 (sub 0) OBJ File: '3.5.blend'
# www.blender.org
mtllib Glass_Of_Wine_01.mtl
o Circle.010
v 0.000000 0.000000 -2.630910
v -1.860334 0.000000 -1.860334
v -2.630910 0.000000 0.000000
v -1.860334 0.000000 1.860334
v 0.000000 0.000000 2.630910
v 1.860335 0.000000 1.860334
v 2.630910 0.000000 -0.000000
v 1.860335 0.000000 -1.860334
v 0.000000 0.182288 -2.604471
v -1.841639 0.182288 -1.841639
v -2.604471 0.182288 0.000000
v -1.841639 0.182288 1.841639
v 0.000000 0.182288 2.604471
v 1.841639 0.182288 1.841639
v 2.604471 0.182288 -0.000000
v 1.841639 0.182288 -1.841639
v 0.000000 0.304767 -0.769178
v -0.543891 0.304767 -0.543891
v -0.769178 0.304767 0.000000
v -0.543891 0.304767 0.543891
v 0.000000 0.304767 0.769178
v 0.543891 0.304767 0.543891
v 0.769178 0.304767 -0.000000
v 0.543891 0.304767 -0.543891
v 0.000000 0.427246 -0.446914
v -0.316016 0.427246 -0.316016
v -0.446914 0.427246 -0.000000
v -0.316016 0.427246 0.316016
v 0.000000 0.427246 0.446914
v 0.316016 0.427246 0.316016
v 0.446914 0.427246 -0.000000
v 0.316016 0.427246 -0.316016
v 0.000000 0.862626 -0.204866
v -0.144862 0.862626 -0.144862
v -0.204866 0.862626 -0.000000
v -0.144862 0.862626 0.144862
v 0.000000 0.862626 0.204866
v 0.144862 0.862626 0.144862
v 0.204866 0.862626 -0.000000
v 0.144862 0.862626 -0.144862
v 0.000000 5.097795 -0.225836
v -0.159690 5.097795 -0.159690
v -0.225835 5.097795 -0.000000
v -0.159690 5.097795 0.159690
v 0.000000 5.097795 0.225835
v 0.159690 5.097795 0.159690
v 0.225836 5.097795 -0.000000
v 0.159690 5.097795 -0.159690
v 0.000000 5.229974 -0.890083
v -0.629384 5.229974 -0.629384
v -0.890083 5.229974 0.000000
v -0.629384 5.229974 0.629384
v 0.000000 5.229974 0.890083
v 0.629384 5.229974 0.629384
v 0.890083 5.229974 -0.000000
v 0.629384 5.229974 -0.629384
v 0.000000 5.896687 -2.259031
v -1.597376 5.896687 -1.597376
v -2.259031 5.896687 0.000000
v -1.597376 5.896687 1.597376
v 0.000000 5.896687 2.259032
v 1.597376 5.896687 1.597376
v 2.259031 5.896687 -0.000000
v 1.597376 5.896687 -1.597376
v 0.000000 6.857995 -2.933328
v -2.074176 6.857995 -2.074177
v -2.933329 6.857995 0.000000
v -2.074176 6.857995 2.074177
v 0.000000 6.857995 2.933329
v 2.074177 6.857995 2.074176
v 2.933328 6.857995 0.000000
v 2.074177 6.857995 -2.074177
v 0.000000 8.286932 -2.843518
v -2.010671 8.286932 -2.010671
v -2.843518 8.286932 0.000000
v -2.010671 8.286932 2.010671
v 0.000000 8.286932 2.843518
v 2.010672 8.286932 2.010670
v 2.843518 8.286932 0.000000
v 2.010672 8.286932 -2.010671
v 0.000000 9.953200 -2.440912
v -1.725985 9.953200 -1.725986
v -2.440912 9.953200 0.000000
v -1.725985 9.953200 1.725986
v 0.000000 9.953200 2.440913
v 1.725986 9.953200 1.725985
v 2.440912 9.953200 0.000000
v 1.725986 9.953200 -1.725986
v -0.138875 4.610219 -0.138875
v -0.196399 4.610219 -0.000000
v 0.196399 4.610219 -0.000000
v 0.138875 4.610219 -0.138875
v 0.000000 4.610219 0.196399
v 0.138875 4.610219 0.138875
v -0.138875 4.610219 0.138875
v 0.000000 4.610219 -0.196399
v 0.000000 8.341469 -0.000000
v 0.000000 8.341469 -2.710597
v -1.916682 8.341469 -1.916682
v -2.710598 8.341469 0.000000
v -1.916682 8.341469 1.916682
v 0.000000 8.341469 2.710598
v 1.916682 8.341469 1.916681
v 2.710597 8.341469 0.000000
v 1.916682 8.341469 -1.916682
v 0.000000 9.956274 -2.326811
v -1.645304 9.956274 -1.645304
v -2.326812 9.956274 0.000000
v -1.645304 9.956274 1.645304
v 0.000000 9.956274 2.326812
v 1.645305 9.956274 1.645304
v 2.326811 9.956274 0.000000
v 1.645305 9.956274 -1.645304
v 0.000000 0.150140 -0.937227
v -0.662720 0.150140 -0.662720
v -0.937227 0.150140 0.000000
v -0.662720 0.150140 0.662720
v 0.000000 0.150140 0.937227
v 0.662720 0.150140 0.662720
v 0.937227 0.150140 -0.000000
v 0.662720 0.150140 -0.662720
v 0.000000 0.150140 -0.000000
v -2.635779 0.091144 0.000000
v -1.863778 0.091144 1.863778
v 0.000000 0.091144 -2.635779
v -1.863778 0.091144 -1.863778
v 1.863778 0.091144 -1.863778
v 1.863778 0.091144 1.863777
v 2.635779 0.091144 -0.000000
v 0.000000 0.091144 2.635779
vn 0.0806 -0.9776 -0.1945
vn 0.1945 -0.9776 0.0806
vn -0.0806 -0.9776 0.1945
vn -0.1945 -0.9776 -0.0806
vn 0.1945 -0.9776 -0.0806
vn 0.0806 -0.9776 0.1945
vn -0.1945 -0.9776 0.0806
vn -0.0806 -0.9776 -0.1945
vn -0.4308 -0.8846 0.1785
vn -0.1785 -0.8846 -0.4308
vn 0.1785 -0.8846 -0.4308
vn 0.4308 -0.8846 0.1785
vn -0.1785 -0.8846 0.4308
vn -0.4308 -0.8846 -0.1785
vn 0.4308 -0.8846 -0.1785
vn 0.1785 -0.8846 0.4308
vn 0.7753 -0.5438 -0.3211
vn 0.3211 -0.5438 0.7753
vn -0.7753 -0.5438 0.3211
vn -0.3211 -0.5438 -0.7753
vn 0.3211 -0.5438 -0.7753
vn 0.7753 -0.5438 0.3211
vn -0.3211 -0.5438 0.7753
vn -0.7753 -0.5438 -0.3211
vn -0.3820 0.0580 0.9223
vn -0.9223 0.0580 -0.3820
vn 0.9223 0.0580 -0.3820
vn 0.3820 0.0580 0.9223
vn -0.9223 0.0580 0.3820
vn -0.3820 0.0580 -0.9223
vn 0.3820 0.0580 -0.9223
vn 0.9223 0.0580 0.3820
vn 0.0000 1.0000 -0.0000
vn -0.8806 0.3025 0.3648
vn -0.3648 0.3025 -0.8806
vn 0.3648 0.3025 -0.8806
vn 0.8806 0.3025 0.3648
vn -0.3648 0.3025 0.8806
vn -0.8806 0.3025 -0.3648
vn 0.8806 0.3025 -0.3648
vn 0.3648 0.3025 0.8806
vn 0.0666 0.9974 0.0276
vn -0.0276 0.9974 0.0666
vn -0.0666 0.9974 -0.0276
vn 0.0666 0.9974 -0.0276
vn 0.0276 0.9974 0.0666
vn -0.0666 0.9974 0.0276
vn -0.0276 0.9974 -0.0666
vn 0.0276 0.9974 -0.0666
vn -0.1456 0.9248 -0.3515
vn 0.1456 0.9248 -0.3515
vn 0.3515 0.9248 0.1456
vn -0.1456 0.9248 0.3515
vn -0.3515 0.9248 -0.1456
vn 0.3515 0.9248 -0.1456
vn 0.1456 0.9248 0.3515
vn -0.3515 0.9248 0.1456
vn 0.8218 0.4569 -0.3404
vn 0.3404 0.4569 0.8218
vn -0.8218 0.4569 0.3404
vn -0.3404 0.4569 -0.8218
vn 0.3404 0.4569 -0.8218
vn 0.8218 0.4569 0.3404
vn -0.3404 0.4569 0.8218
vn -0.8218 0.4569 -0.3404
vn -0.9224 -0.0557 -0.3821
vn 0.9224 -0.0557 -0.3821
vn 0.3821 -0.0557 0.9224
vn -0.9224 -0.0557 0.3821
vn -0.3821 -0.0557 -0.9224
vn 0.3821 -0.0557 -0.9224
vn 0.9224 -0.0557 0.3821
vn -0.3821 -0.0557 0.9224
vn 0.3735 0.2179 -0.9017
vn 0.9017 0.2179 0.3735
vn -0.3735 0.2179 0.9017
vn -0.9017 0.2179 -0.3735
vn 0.9017 0.2179 -0.3735
vn 0.3735 0.2179 0.9017
vn -0.9017 0.2179 0.3735
vn -0.3735 0.2179 -0.9017
vn -0.3827 0.0021 0.9239
vn 0.9239 0.0021 0.3827
vn 0.3827 0.0021 -0.9239
vn -0.3827 0.0021 -0.9239
vn -0.9239 0.0021 0.3827
vn 0.3827 0.0021 0.9239
vn 0.9239 0.0021 -0.3827
vn -0.9239 0.0021 -0.3827
vn -0.3738 -0.2145 0.9024
vn -0.9024 -0.2145 -0.3738
vn 0.3738 -0.2145 -0.9024
vn 0.9024 -0.2145 0.3738
vn -0.9024 -0.2145 0.3738
vn -0.3738 -0.2145 -0.9024
vn 0.9024 -0.2145 -0.3738
vn 0.3738 -0.2145 0.9024
vn 0.0112 0.9996 -0.0269
vn 0.0269 0.9996 -0.0112
vn 0.0269 0.9996 0.0112
vn 0.0112 0.9996 0.0269
vn -0.0112 0.9996 0.0269
vn -0.0269 0.9996 0.0112
vn -0.0269 0.9996 -0.0112
vn -0.0112 0.9996 -0.0269
vn 0.0882 -0.9954 0.0366
vn -0.0882 -0.9954 0.0366
vn -0.0366 -0.9954 -0.0882
vn 0.0882 -0.9954 -0.0366
vn 0.0366 -0.9954 0.0882
vn -0.0366 -0.9954 0.0882
vn -0.0882 -0.9954 -0.0366
vn 0.0366 -0.9954 -0.0882
vn 0.0000 -1.0000 0.0000
vn 0.3822 -0.0493 0.9228
vn 0.9228 -0.0493 -0.3822
vn -0.9228 -0.0493 -0.3822
vn -0.3822 -0.0493 0.9228
vn 0.9228 -0.0493 0.3822
vn 0.3822 -0.0493 -0.9228
vn -0.3822 -0.0493 -0.9228
vn -0.9228 -0.0493 0.3822
usemtl F44336
s off
f 41//1 49//1 56//1 48//1
f 47//2 55//2 54//2 46//2
f 45//3 53//3 52//3 44//3
f 43//4 51//4 50//4 42//4
f 48//5 56//5 55//5 47//5
f 46//6 54//6 53//6 45//6
f 44//7 52//7 51//7 43//7
f 42//8 50//8 49//8 41//8
f 52//9 60//9 59//9 51//9
f 50//10 58//10 57//10 49//10
f 49//11 57//11 64//11 56//11
f 55//12 63//12 62//12 54//12
f 53//13 61//13 60//13 52//13
f 51//14 59//14 58//14 50//14
f 56//15 64//15 63//15 55//15
f 54//16 62//16 61//16 53//16
f 64//17 72//17 71//17 63//17
f 62//18 70//18 69//18 61//18
f 60//19 68//19 67//19 59//19
f 58//20 66//20 65//20 57//20
f 57//21 65//21 72//21 64//21
f 63//22 71//22 70//22 62//22
f 61//23 69//23 68//23 60//23
f 59//24 67//24 66//24 58//24
f 69//25 77//25 76//25 68//25
f 67//26 75//26 74//26 66//26
f 72//27 80//27 79//27 71//27
f 70//28 78//28 77//28 69//28
f 68//29 76//29 75//29 67//29
f 66//30 74//30 73//30 65//30
f 65//31 73//31 80//31 72//31
f 71//32 79//32 78//32 70//32
f 99//33 100//33 97//33
f 101//33 102//33 97//33
f 103//33 104//33 97//33
f 105//33 98//33 97//33
f 98//33 99//33 97//33
f 100//33 101//33 97//33
f 102//33 103//33 97//33
f 104//33 105//33 97//33
usemtl FFFFFF
f 124//34 12//34 11//34 123//34
f 126//35 10//35 9//35 125//35
f 125//36 9//36 16//36 127//36
f 129//37 15//37 14//37 128//37
f 130//38 13//38 12//38 124//38
f 123//39 11//39 10//39 126//39
f 127//40 16//40 15//40 129//40
f 128//41 14//41 13//41 130//41
f 15//42 23//42 22//42 14//42
f 13//43 21//43 20//43 12//43
f 11//44 19//44 18//44 10//44
f 16//45 24//45 23//45 15//45
f 14//46 22//46 21//46 13//46
f 12//47 20//47 19//47 11//47
f 10//48 18//48 17//48 9//48
f 9//49 17//49 24//49 16//49
f 18//50 26//50 25//50 17//50
f 17//51 25//51 32//51 24//51
f 23//52 31//52 30//52 22//52
f 21//53 29//53 28//53 20//53
f 19//54 27//54 26//54 18//54
f 24//55 32//55 31//55 23//55
f 22//56 30//56 29//56 21//56
f 20//57 28//57 27//57 19//57
f 32//58 40//58 39//58 31//58
f 30//59 38//59 37//59 29//59
f 28//60 36//60 35//60 27//60
f 26//61 34//61 33//61 25//61
f 25//62 33//62 40//62 32//62
f 31//63 39//63 38//63 30//63
f 29//64 37//64 36//64 28//64
f 27//65 35//65 34//65 26//65
f 90//66 43//66 42//66 89//66
f 92//67 48//67 47//67 91//67
f 94//68 46//68 45//68 93//68
f 95//69 44//69 43//69 90//69
f 89//70 42//70 41//70 96//70
f 96//71 41//71 48//71 92//71
f 91//72 47//72 46//72 94//72
f 93//73 45//73 44//73 95//73
f 73//74 81//74 88//74 80//74
f 79//75 87//75 86//75 78//75
f 77//76 85//76 84//76 76//76
f 75//77 83//77 82//77 74//77
f 80//78 88//78 87//78 79//78
f 78//79 86//79 85//79 77//79
f 76//80 84//80 83//80 75//80
f 74//81 82//81 81//81 73//81
f 37//82 93//82 95//82 36//82
f 39//83 91//83 94//83 38//83
f 33//84 96//84 92//84 40//84
f 34//85 89//85 96//85 33//85
f 36//86 95//86 90//86 35//86
f 38//87 94//87 93//87 37//87
f 40//88 92//88 91//88 39//88
f 35//89 90//89 89//89 34//89
f 98//90 105//90 113//90 106//90
f 104//91 103//91 111//91 112//91
f 102//92 101//92 109//92 110//92
f 100//93 99//93 107//93 108//93
f 105//94 104//94 112//94 113//94
f 103//95 102//95 110//95 111//95
f 101//96 100//96 108//96 109//96
f 99//97 98//97 106//97 107//97
f 81//98 106//98 113//98 88//98
f 88//99 113//99 112//99 87//99
f 87//100 112//100 111//100 86//100
f 86//101 111//101 110//101 85//101
f 85//102 110//102 109//102 84//102
f 84//103 109//103 108//103 83//103
f 83//104 108//104 107//104 82//104
f 82//105 107//105 106//105 81//105
f 3//106 2//106 115//106 116//106
f 8//107 7//107 120//107 121//107
f 6//108 5//108 118//108 119//108
f 4//109 3//109 116//109 117//109
f 2//110 1//110 114//110 115//110
f 1//111 8//111 121//111 114//111
f 7//112 6//112 119//112 120//112
f 5//113 4//113 117//113 118//113
f 121//114 120//114 122//114
f 119//114 118//114 122//114
f 117//114 116//114 122//114
f 115//114 114//114 122//114
f 114//114 121//114 122//114
f 120//114 119//114 122//114
f 118//114 117//114 122//114
f 116//114 115//114 122//114
f 6//115 128//115 130//115 5//115
f 8//116 127//116 129//116 7//116
f 3//117 123//117 126//117 2//117
f 5//118 130//118 124//118 4//118
f 7//119 129//119 128//119 6//119
f 1//120 125//120 127//120 8//120
f 2//121 126//121 125//121 1//121
f 4//122 124//122 123//122 3//122
